<svg xmlns="http://www.w3.org/2000/svg" viewBox="0 0 2048 512"><defs><style>.a{isolation:isolate;}.b{fill:#046cff;}.c,.d{fill:#006aff;}.d{fill-rule:evenodd;}</style></defs><title>luminaire logo</title><g class="a"><path class="b" d="M506.65,138.18h51.76V329.59H662.92v42.06H506.65Z"/><path class="b" d="M843.08,209.05v162.6H794.3V348.47a51.42,51.42,0,0,1-20.07,19.2,58.66,58.66,0,0,1-28,6.63q-30.86,0-46-17.06t-15.1-51.49v-96.7h50.1v97.69q0,14.58,6.14,21.53t18.74,7q14.6,0,23.72-9.93T793,299.12V209.05Z"/><path class="b" d="M1123.76,222q13.6,16.89,13.6,51.66v98h-50.1V275.28q0-16.54-5.14-23.84t-17.42-7.29q-14.27,0-22.23,9.94t-8,27.81v89.75h-50.1V275.28q0-16.54-5.14-23.84t-17.42-7.29q-14.26,0-22.23,9.94t-8,27.81v89.75h-50.1V209.05h48.77v21.86a50.94,50.94,0,0,1,20.41-19.21q12.76-6.62,29.36-6.62,36.15,0,48.44,30.13a58.27,58.27,0,0,1,22.23-22,62.6,62.6,0,0,1,31.52-8.11Q1110.16,205.08,1123.76,222Z"/><path class="b" d="M1227.27,130.9v46.69h-53.75V130.9Zm-52.09,78.15h50.1v162.6h-50.1Z"/><path class="b" d="M1409.42,222.13q14.26,17.06,14.27,51.5v98h-50.1V275.94q0-16.54-6.14-24.17t-19.08-7.62q-15.6,0-25,9.94t-9.45,26.49v91.07h-50.1V209.05h48.77v23.18a57.06,57.06,0,0,1,22.39-20.2,67.93,67.93,0,0,1,31-6.95Q1395.15,205.08,1409.42,222.13Z"/><path class="b" d="M1587.42,222.3q17.41,17.22,17.41,53.31v96h-47.44V347.47a39.67,39.67,0,0,1-16.59,19.71q-11.61,7.11-27.21,7.12a66.91,66.91,0,0,1-30-6.63,52.51,52.51,0,0,1-21.24-18.54,47.36,47.36,0,0,1-7.79-26.49q0-17.89,9.12-28.15t29.36-14.9q20.24-4.63,55.41-4.64h8.63v-6q0-14.57-6.31-20.53t-21.89-6a95,95,0,0,0-26.55,4.3,129.74,129.74,0,0,0-27.87,11.92l-13.27-33.44q13.93-8.61,34.34-14.41t38-5.79Q1570,205.08,1587.42,222.3ZM1548.1,330.09q9-9.76,9-25.34v-5.63h-5.64q-26.88,0-37.66,4.31T1503,319a19.92,19.92,0,0,0,6.14,14.91,21.25,21.25,0,0,0,15.42,6Q1539.14,339.86,1548.1,330.09Z"/><path class="b" d="M1694.41,130.9v46.69h-53.75V130.9Zm-52.09,78.15h50.1v162.6h-50.1Z"/><path class="b" d="M1847.36,246.14l-28.2,3q-20.9,2-29.53,11.76t-8.63,26v84.78h-50.09V209.05H1779v27.49q12.29-28.14,50.77-30.8l14.6-1Z"/><path class="b" d="M2007.28,299.79H1901.11q2.31,19.54,12.77,28.31t29.7,8.78a78.84,78.84,0,0,0,25-4.14A80.7,80.7,0,0,0,1991.35,321l13.27,33.45q-11.94,9.27-29,14.57a115.45,115.45,0,0,1-34.34,5.3q-41.14,0-64.86-22.69t-23.72-61.76q0-24.84,10.28-44a75.39,75.39,0,0,1,28.54-30q18.24-10.76,41.47-10.76,34.17,0,54.24,22.18t20.08,60.27Zm-95.72-51.17q-8.46,9.12-10.45,26.33h64q-1-17.55-8.79-26.49t-22.06-8.94Q1920,239.52,1911.56,248.62Z"/></g><path class="c" d="M93.14,350.13a12.15,12.15,0,0,1-8.34-3.29c-37.55-35.19-58.22-84.69-58.22-139.39C26.58,96.37,116.92,6,228,6S429.43,96.37,429.43,207.45c0,49.88-20.47,99.18-57.67,138.83A12.18,12.18,0,1,1,354,329.62c32.93-35.14,51.08-78.52,51.08-122.17,0-97.65-79.43-177.09-177.06-177.09S50.94,109.8,50.94,207.45c0,47.89,18,91.06,50.53,121.61a12.18,12.18,0,0,1-8.33,21.07Z"/><path class="c" d="M85,224.71l41.48.08c9.54-.2,6.91,1.57,12.22-4,3.91-4.58,7.56-10.3,11.61-16.16l3.37-4.59c1.48-1.62,2.1-3.2,6.36-5.77,1.84-.3,1.55-2.06,7.8-.34,2.81,1.46,2.19,1.51,2.84,2l1.18,1.32a30.64,30.64,0,0,1,2,3.15c1,1.86,1.78,3.51,2.57,5.19,3,6.64,5.52,13.09,8.07,19.59l14.82,38.76c5,12.75,10,25.77,15.79,37.48a39.68,39.68,0,0,0,3.78,6.36c.76.81-2.62-3.2-8,.81-1.41,1.7-.56.76-.57.48.4-1,.82-2.6,1.21-4.08,1.51-6.22,2.66-13,3.76-19.74,4.26-27.06,7.63-54.56,11.36-82s7.43-54.89,12.74-82.41c1.37-6.9,2.84-13.78,4.82-20.79a71.57,71.57,0,0,1,3.89-10.89c1.15-2,1.49-3.89,5.22-7,1.66-1.75,7.21-2.51,9.27-1.18a13,13,0,0,1,4.6,3.17c6.41,7.58,8.24,13.77,11.29,20.5,2.68,6.62,5,13.22,7.32,19.84,9,26.42,16.54,53.12,24.93,79.24,2.11,6.43,4.29,13.13,6.78,18.73l.88,1.76c0,.41,1.13,1-.91-.5,0-.54-4.37-1-3-.77H319l10.4,0,41.61.14A6.76,6.76,0,1,1,371,236.7l-41.35,0H314.77c1,.21-3.87-.34-4.21-1.08-3.45-2.51-3.27-3.45-4.11-4.52L305,228.29c-3.14-7-5.2-13.53-7.45-20.21-8.63-26.5-16.22-53-25.19-78.91-2.25-6.45-4.57-12.86-7.12-19-2.42-5.87-5.64-12.9-8.3-15.84-.17-.2-.45-.27.43.16.49.65,4.09.07,4.4-.55.95-1-.27.43-.63,1.48a59.6,59.6,0,0,0-3,8.63c-1.76,6.31-3.17,13-4.47,19.63-5.09,26.8-8.68,54.22-12.33,81.57s-6.9,54.82-11.15,82.4c-1.13,6.93-2.22,13.78-3.95,21a55.14,55.14,0,0,1-1.75,5.86,13.29,13.29,0,0,1-3,5,9,9,0,0,1-12.42-.16c-4.79-4.83-5.4-7.47-7.45-10.95C195,295.31,190.1,282.46,185,269.5l-15-38.66c-2.52-6.36-5.07-12.77-7.79-18.72l-2-4.11-.75-1.24.31.35a8.33,8.33,0,0,0,1.86,1.19c5.45,1.11,4.38,0,5.42,0,1.31-.81-.31.38-1,1.45l-2.72,3.79c-3.78,5.53-7.48,11.58-12.49,17.58-2.69,2.93-5.17,6.28-11.38,8.88a21.61,21.61,0,0,1-5.19.83h-7.77L85,241a8.13,8.13,0,1,1,0-16.25Z"/><path class="d" d="M288.41,466H167.6a65.58,65.58,0,0,0,120.81,0Z"/><path class="c" d="M314,398.45H142.91a15.24,15.24,0,0,1,0-30.47H314a15.24,15.24,0,0,1,0,30.47Z"/><path class="c" d="M303.71,447.44H151.42a15.24,15.24,0,0,1,0-30.48H303.71a15.24,15.24,0,0,1,0,30.48Z"/><path class="c" d="M96.33,126.76a6,6,0,0,1-3.27-1,6.1,6.1,0,0,1-1.87-8.41c1-1.65,26-40.22,62.79-56.68a6.1,6.1,0,1,1,5,11.15c-33.52,15-57.23,51.72-57.47,52.08A6.09,6.09,0,0,1,96.33,126.76Z"/></svg>